<svg width="32" height="32" viewBox="0 0 32 32" fill="none" xmlns="http://www.w3.org/2000/svg">
<rect width="32" height="32" rx="16" fill="#C1E3FF"/>
<path d="M12 11.3334H20C20.1768 11.3334 20.3464 11.4036 20.4714 11.5286C20.5964 11.6537 20.6667 11.8232 20.6667 12C20.6667 12.1769 20.5964 12.3464 20.4714 12.4714C20.3464 12.5965 20.1768 12.6667 20 12.6667H12C11.8232 12.6667 11.6536 12.5965 11.5286 12.4714C11.4036 12.3464 11.3333 12.1769 11.3333 12C11.3333 11.8232 11.4036 11.6537 11.5286 11.5286C11.6536 11.4036 11.8232 11.3334 12 11.3334ZM22 9.33337V10.6667H10V9.33337H22ZM18 13.3334H19.3333V22.6667H18V13.3334ZM12.6667 13.3334H14V22.6667H12.6667V13.3334ZM15.3333 13.3334H16.6667V22.6667H15.3333V13.3334Z" fill="#11164A"/>
</svg>
