<?xml version="1.0" standalone="no"?>
<!DOCTYPE svg PUBLIC "-//W3C//DTD SVG 20010904//EN"
 "http://www.w3.org/TR/2001/REC-SVG-20010904/DTD/svg10.dtd">
<svg version="1.0" xmlns="http://www.w3.org/2000/svg"
 width="300.000000pt" height="84.000000pt" viewBox="0 0 300.000000 84.000000"
 preserveAspectRatio="xMidYMid meet">
<metadata>
Created by potrace 1.10, written by Peter Selinger 2001-2011
</metadata>
<g transform="translate(0.000000,84.000000) scale(0.100000,-0.100000)"
fill="#000000" stroke="none">
<path d="M323 791 c-21 -21 -46 -54 -57 -72 l-19 -34 31 35 c17 19 31 39 32
43 0 5 6 5 13 1 6 -4 9 -3 4 1 -4 5 5 21 20 37 15 15 24 28 20 28 -3 0 -23
-17 -44 -39z"/>
<path d="M1593 793 c-18 -9 -33 -21 -33 -27 0 -6 -9 -17 -20 -23 -10 -7 -42
-55 -70 -107 -28 -53 -64 -109 -80 -126 -26 -28 -33 -30 -98 -30 -60 0 -75 -4
-100 -25 -16 -13 -49 -27 -73 -31 -53 -8 -162 -61 -154 -74 3 -6 8 -10 11 -10
3 0 3 4 0 9 -3 5 6 12 22 16 15 3 35 14 44 22 10 9 31 17 48 19 18 2 36 6 41
9 13 9 11 -9 -3 -23 -6 -6 -13 -20 -14 -29 -2 -14 2 -12 16 7 11 14 20 28 20
32 0 3 21 19 48 33 35 21 63 28 110 30 56 2 65 5 90 33 15 16 45 63 66 104 51
95 113 174 148 189 32 13 67 -4 106 -52 13 -16 32 -29 41 -29 19 0 84 -65 117
-116 28 -44 37 -51 77 -62 32 -9 44 -6 114 28 112 54 132 56 215 19 38 -17 72
-29 74 -26 2 2 -30 18 -72 36 -70 29 -80 31 -124 22 -27 -6 -77 -26 -112 -45
-59 -32 -65 -34 -94 -21 -17 7 -44 30 -60 51 -55 71 -106 123 -127 130 -12 3
-38 21 -57 39 -43 42 -75 49 -117 28z"/>
<path d="M470 793 c0 -6 5 -15 10 -18 13 -8 132 -246 126 -252 -2 -3 2 -12 10
-21 8 -9 35 -41 59 -70 25 -29 45 -50 45 -47 0 4 -17 27 -39 53 -21 26 -68
108 -105 182 -63 129 -105 198 -106 173z"/>
<path d="M2787 764 c-16 -8 -46 -42 -67 -76 -38 -59 -106 -216 -97 -225 3 -2
11 13 17 34 13 41 92 198 113 224 6 8 26 23 43 34 26 15 37 16 63 7 31 -11 45
0 15 12 -26 10 -57 6 -87 -10z"/>
<path d="M2900 751 c0 -5 12 -17 28 -26 15 -9 37 -31 50 -48 12 -17 22 -27 22
-21 0 17 -37 60 -70 84 -17 12 -30 17 -30 11z"/>
<path d="M212 647 c-18 -18 -30 -36 -27 -39 3 -3 -7 -9 -22 -13 -25 -7 -26 -8
-8 -15 19 -8 41 9 79 61 6 8 20 21 31 27 20 11 20 11 -1 12 -11 0 -35 -15 -52
-33z"/>
<path d="M370 663 c1 -4 15 -17 33 -29 18 -11 31 -27 29 -35 -3 -11 -1 -11 9
-2 10 10 7 17 -12 33 -32 27 -59 42 -59 33z"/>
<path d="M503 546 c27 -25 51 -46 55 -46 10 0 -62 71 -83 81 -11 6 2 -10 28
-35z"/>
<path d="M121 544 c-12 -15 -21 -33 -21 -40 0 -8 -4 -14 -9 -14 -5 0 -16 -11
-24 -24 -15 -22 -15 -24 1 -21 10 1 16 9 14 19 -2 9 2 16 7 16 6 0 20 18 31
39 10 22 25 41 32 44 9 4 9 6 1 6 -6 1 -21 -11 -32 -25z"/>
<path d="M2124 543 c40 -6 114 -84 155 -163 50 -97 92 -160 105 -159 7 0 7 2
-1 6 -7 2 -13 8 -13 13 0 4 -17 37 -38 71 -22 35 -47 82 -58 104 -10 22 -39
61 -64 87 -39 40 -52 48 -81 47 -32 -2 -32 -2 -5 -6z"/>
<path d="M2395 541 c47 -15 145 -28 145 -21 0 4 -24 10 -52 14 -138 17 -127
17 -93 7z"/>
<path d="M2715 511 c-11 -5 -24 -6 -30 -3 -5 3 -7 1 -2 -3 4 -5 -5 -22 -20
-39 l-28 -31 31 28 c17 16 51 35 75 42 31 10 36 14 19 14 -14 0 -34 -4 -45 -8z"/>
<path d="M2857 500 c18 -4 41 -14 50 -21 14 -12 15 -12 9 0 -7 10 -3 12 15 6
13 -4 29 -14 37 -21 16 -17 36 -19 26 -3 -12 20 -89 49 -129 48 l-40 -1 32 -8z"/>
<path d="M206 448 c-18 -29 -43 -72 -55 -95 -12 -24 -26 -43 -32 -43 -6 0 -8
-4 -5 -9 3 -5 -2 -19 -12 -32 -9 -13 -26 -41 -36 -62 -11 -21 -31 -49 -44 -63
-14 -13 -23 -27 -19 -30 9 -9 82 96 149 216 35 63 72 127 82 143 10 15 15 27
12 27 -3 0 -21 -24 -40 -52z"/>
<path d="M2605 431 c-3 -10 -2 -26 1 -36 6 -14 4 -16 -6 -10 -9 5 -11 4 -6 -3
4 -7 3 -12 -2 -12 -5 0 -17 -19 -27 -42 -10 -24 -29 -57 -42 -75 -13 -17 -23
-36 -23 -41 0 -5 -19 -26 -41 -47 -40 -36 -44 -37 -98 -32 -31 2 -73 12 -93
21 -21 9 -41 17 -45 17 -5 1 -18 5 -30 10 -13 5 -23 5 -23 1 0 -7 108 -47 173
-63 65 -16 115 14 187 112 33 45 60 88 60 96 0 7 5 13 11 13 5 0 8 4 5 8 -3 5
4 23 15 40 23 39 25 53 3 26 -15 -18 -15 -18 -9 9 6 30 0 37 -10 8z"/>
<path d="M626 428 c5 -7 18 -28 31 -47 12 -18 20 -38 16 -44 -3 -5 -1 -7 5 -3
9 5 24 -21 27 -44 0 -3 14 -24 31 -45 17 -22 45 -62 63 -89 31 -47 32 -51 15
-63 -32 -24 -63 -15 -116 34 -43 40 -48 43 -30 16 49 -69 106 -91 156 -58 18
12 30 13 52 5 27 -9 28 -9 10 5 -19 15 -19 16 4 47 l23 33 -35 -33 -35 -33
-67 100 c-36 55 -66 103 -66 106 0 8 -81 125 -87 125 -2 0 -1 -6 3 -12z"/>
<path d="M1651 397 c-12 -13 -23 -32 -26 -43 -5 -25 -43 -102 -66 -135 -10
-14 -16 -29 -13 -31 7 -8 -46 -48 -63 -48 -21 0 -104 61 -97 71 3 5 -2 6 -10
3 -12 -5 -10 -10 12 -28 47 -39 76 -56 93 -56 35 0 78 52 124 148 26 53 56
107 68 120 11 12 16 22 10 22 -5 0 -19 -11 -32 -23z"/>
<path d="M2910 390 c0 -3 -27 -6 -59 -5 -55 0 -63 -3 -96 -35 -20 -19 -53 -57
-73 -85 -48 -66 -82 -99 -129 -124 -21 -11 -34 -20 -30 -21 4 0 24 9 45 19 41
21 77 58 141 143 47 63 95 98 133 98 13 0 48 -7 77 -16 71 -21 92 -14 36 12
-25 11 -45 18 -45 14z"/>
<path d="M1878 354 c30 -58 78 -121 107 -140 34 -22 103 -35 112 -20 3 6 3 8
-1 5 -19 -18 -143 32 -130 53 3 5 11 5 17 0 7 -4 28 -9 47 -11 19 -1 47 -4 62
-5 15 -2 25 0 23 4 -2 4 -29 10 -58 13 -76 8 -132 39 -157 86 -11 22 -25 43
-31 46 -6 4 -2 -10 9 -31z"/>
<path d="M505 349 c4 -5 17 -9 31 -9 13 0 24 -5 24 -12 0 -9 3 -9 12 0 15 15
11 18 -35 25 -22 3 -35 2 -32 -4z"/>
<path d="M1093 334 c7 -8 -76 -144 -112 -183 -16 -17 -26 -33 -23 -36 3 -3 1
-5 -4 -5 -6 0 -19 -7 -30 -16 -18 -14 -18 -14 6 -3 25 11 110 97 110 110 0 14
53 71 74 80 17 8 16 9 -7 4 -26 -5 -27 -4 -17 15 6 11 13 20 15 20 3 0 25 -16
51 -35 25 -19 50 -35 56 -35 7 0 -9 14 -34 30 -25 17 -52 37 -58 45 -7 8 -17
15 -23 15 -6 0 -8 -3 -4 -6z"/>
<path d="M1305 246 c28 -14 55 -26 60 -26 18 0 -54 39 -82 45 -18 4 -11 -3 22
-19z"/>
</g>
</svg>
